<?xml version="1.0" encoding="UTF-8"?>
<svg xmlns="http://www.w3.org/2000/svg" xmlns:xlink="http://www.w3.org/1999/xlink" width="32px" height="32px" viewBox="0 0 32 32" version="1.1">
<g id="surface1">
<path style=" stroke:none;fill-rule:nonzero;fill:rgb(12.54902%,12.54902%,12.54902%);fill-opacity:1;" d="M 7.3125 20.792969 L 7.386719 21.929688 L 6.585938 27.492188 L 4.800781 27.492188 L 8.222656 4.507812 L 11.640625 27.492188 L 9.867188 27.492188 L 9.089844 22.160156 L 9.144531 20.835938 L 8.226562 13.820312 Z M 6.636719 19.332031 L 9.835938 19.332031 L 9.941406 23.316406 L 6.523438 23.316406 Z M 6.636719 19.332031 "/>
<path style=" stroke:none;fill-rule:nonzero;fill:rgb(12.54902%,12.54902%,12.54902%);fill-opacity:1;" d="M 14.804688 16.890625 C 14.691406 16.398438 14.511719 16.140625 14.328125 16.203125 C 14.191406 16.195312 14.058594 16.304688 13.9375 16.515625 C 13.824219 16.714844 13.730469 17.023438 13.671875 17.40625 C 13.613281 17.855469 13.585938 18.351562 13.601562 18.84375 L 13.601562 27.492188 L 12.179688 27.492188 L 12.179688 13.269531 L 13.601562 13.269531 L 13.601562 15.40625 C 13.714844 14.652344 13.890625 14.023438 14.105469 13.582031 C 14.347656 13.121094 14.625 12.894531 14.902344 12.933594 C 15.335938 12.800781 15.761719 13.324219 16.0625 14.355469 C 16.324219 15.496094 16.449219 16.910156 16.425781 18.335938 L 16.425781 27.492188 L 14.949219 27.492188 L 14.949219 18.84375 C 14.960938 18.160156 14.914062 17.476562 14.804688 16.890625 Z M 14.804688 16.890625 "/>
<path style=" stroke:none;fill-rule:nonzero;fill:rgb(12.54902%,12.54902%,12.54902%);fill-opacity:1;" d="M 17.570312 16.152344 C 17.785156 15.035156 18.085938 14.136719 18.441406 13.554688 C 19.234375 12.316406 20.148438 12.316406 20.9375 13.554688 C 21.292969 14.140625 21.597656 15.039062 21.8125 16.152344 C 22.03125 17.328125 22.144531 18.695312 22.132812 20.078125 C 22.144531 21.464844 22.03125 22.828125 21.8125 24 C 21.597656 25.117188 21.296875 26.019531 20.9375 26.59375 C 20.148438 27.835938 19.234375 27.835938 18.441406 26.59375 C 18.085938 26.019531 17.78125 25.121094 17.570312 24 C 17.355469 22.832031 17.246094 21.484375 17.257812 20.117188 C 17.242188 18.71875 17.351562 17.34375 17.570312 16.152344 Z M 18.832031 21.972656 C 18.921875 22.480469 19.046875 22.90625 19.199219 23.199219 C 19.511719 23.769531 19.886719 23.769531 20.199219 23.199219 C 20.347656 22.90625 20.472656 22.484375 20.558594 21.972656 C 20.652344 21.394531 20.699219 20.738281 20.691406 20.078125 C 20.699219 19.410156 20.652344 18.75 20.558594 18.160156 C 20.472656 17.628906 20.34375 17.191406 20.1875 16.890625 C 19.960938 16.441406 19.6875 16.320312 19.433594 16.550781 C 19.175781 16.785156 18.960938 17.351562 18.832031 18.125 C 18.734375 18.710938 18.683594 19.375 18.691406 20.042969 C 18.683594 20.71875 18.730469 21.386719 18.832031 21.972656 Z M 18.832031 21.972656 "/>
<path style=" stroke:none;fill-rule:nonzero;fill:rgb(12.54902%,12.54902%,12.54902%);fill-opacity:1;" d="M 25.601562 16.890625 C 25.488281 16.398438 25.304688 16.140625 25.121094 16.203125 C 24.988281 16.195312 24.851562 16.304688 24.734375 16.515625 C 24.621094 16.71875 24.527344 17.027344 24.464844 17.40625 C 24.402344 17.847656 24.371094 18.335938 24.375 18.828125 L 24.375 27.476562 L 22.960938 27.476562 L 22.960938 13.253906 L 24.371094 13.253906 L 24.371094 15.386719 C 24.488281 14.636719 24.660156 14.007812 24.878906 13.5625 C 25.121094 13.101562 25.398438 12.878906 25.675781 12.914062 C 26.109375 12.78125 26.53125 13.304688 26.835938 14.335938 C 27.097656 15.480469 27.226562 16.90625 27.199219 18.347656 L 27.199219 27.492188 L 25.734375 27.492188 L 25.734375 18.84375 C 25.75 18.164062 25.703125 17.480469 25.601562 16.890625 Z M 25.601562 16.890625 "/>
</g>
</svg>
